<?xml version="1.0" encoding="UTF-8"?>
<svg version="1.1" xmlns="http://www.w3.org/2000/svg" width="29" height="29">
<path d="M0 0 C3.85555469 1.8866261 6.28594637 4.28627128 7.9375 8.25 C7.958125 9.1575 7.97875 10.065 8 11 C8.12375 12.13308594 8.12375 12.13308594 8.25 13.2890625 C8.59895613 18.10174915 8.39943766 21.22361599 5.3125 25.0625 C2.60949903 27.73414365 0.89455651 28.91148735 -3 29 C-4.13308594 29.12375 -4.13308594 29.12375 -5.2890625 29.25 C-10.10174915 29.59895613 -13.22361599 29.39943766 -17.0625 26.3125 C-19.73414365 23.60949903 -20.91148735 21.89455651 -21 18 C-21.0825 17.24460937 -21.165 16.48921875 -21.25 15.7109375 C-21.60751884 10.78015687 -21.38869098 7.78881417 -18.125 3.9375 C-13.03170463 -1.29112448 -6.98501794 -0.88039465 0 0 Z M-6 5 C-6 11.27 -6 17.54 -6 24 C-0.22370773 23.67377267 -0.22370773 23.67377267 1.875 20.9375 C3.32263427 17.15756606 3.86870244 13.98959641 3 10 C0.91542329 6.91422496 0.91542329 6.91422496 -2 5 C-3.32 5 -4.64 5 -6 5 Z " fill="#000000" transform="translate(21,0)"/>
<path d="" fill="#000000" transform="translate(0,0)"/>
<path d="" fill="#000000" transform="translate(0,0)"/>
<path d="" fill="#000000" transform="translate(0,0)"/>
<path d="" fill="#000000" transform="translate(0,0)"/>
</svg>
