<?xml version="1.0" encoding="UTF-8"?>
<svg version="1.1" xmlns="http://www.w3.org/2000/svg" width="512" height="512">
<path d="M0 0 C0.71203583 -0.00100708 1.42407166 -0.00201416 2.15768433 -0.00305176 C13.5688233 0.00785004 24.53943515 0.69368565 35.6875 3.25 C36.94433594 3.5284375 38.20117188 3.806875 39.49609375 4.09375 C68.18491142 11.13693063 96.39002481 25.42597375 116.6875 47.25 C117.8940625 48.4565625 117.8940625 48.4565625 119.125 49.6875 C119.970625 50.533125 120.81625 51.37875 121.6875 52.25 C122.22503906 52.72953125 122.76257813 53.2090625 123.31640625 53.703125 C150.02511653 78.46025937 165.16931307 118.43990059 167.6875 154.25 C167.58953125 155.54808594 167.4915625 156.84617188 167.390625 158.18359375 C167.16928986 162.41024366 167.2075593 165.26900449 168.6875 169.25 C173.06391382 173.52145722 178.89605408 176.03785424 184.24951172 178.86669922 C219.27697152 198.74108208 242.68809709 238.23719751 253.14208984 275.90063477 C255.6447346 285.40091064 257.00414613 294.66117548 257.05859375 304.48828125 C257.06762222 305.53034225 257.0766507 306.57240326 257.08595276 307.64604187 C257.1003696 309.84188001 257.10932048 312.03776026 257.11303711 314.23364258 C257.12483494 317.5165695 257.17402545 320.79755174 257.22460938 324.08007812 C257.49415383 359.25811359 244.79680338 392.92932942 222.6875 420.25 C222.22311523 420.82717773 221.75873047 421.40435547 221.28027344 421.99902344 C198.16664502 450.51168876 167.19045664 470.88043555 131.5625 480 C130.40077271 480.29825684 130.40077271 480.29825684 129.21557617 480.60253906 C116.7226173 483.63129258 104.30878665 484.63164275 91.5 484.5625 C90.77727905 484.56034485 90.05455811 484.5581897 89.30993652 484.55596924 C77.88186904 484.50144782 66.82856707 483.95393192 55.6875 481.25 C54.42123779 480.94400879 54.42123779 480.94400879 53.12939453 480.63183594 C37.28946071 476.67832657 22.84242168 470.85030386 8.64501953 462.82666016 C5.36051948 460.99705162 2.47864161 459.45321027 -1.3125 459.25 C-3.41229268 460.11443639 -3.41229268 460.11443639 -5.4375 461.625 C-23.63598017 473.20095632 -44.11312534 479.82358944 -65.3125 483.25 C-66.44558594 483.43433594 -67.57867187 483.61867188 -68.74609375 483.80859375 C-86.96307802 485.97832075 -107.4932211 485.55680943 -125.3125 481.25 C-126.56281006 480.95198486 -126.56281006 480.95198486 -127.83837891 480.64794922 C-171.00433884 470.02945714 -208.76966047 442.82727423 -232.12109375 404.94140625 C-247.87960577 378.69139725 -255.49895351 352.25827835 -255.66259766 321.64355469 C-255.6789898 319.40972352 -255.70605106 317.17594099 -255.74462891 314.94238281 C-256.24459163 285.75325501 -249.17843959 253.79088963 -232.3125 229.25 C-231.6525 229.25 -230.9925 229.25 -230.3125 229.25 C-230.168125 228.63125 -230.02375 228.0125 -229.875 227.375 C-229.3125 225.25 -229.3125 225.25 -228.3125 223.25 C-227.6525 223.25 -226.9925 223.25 -226.3125 223.25 C-226.3125 222.26 -226.3125 221.27 -226.3125 220.25 C-225.6525 220.25 -224.9925 220.25 -224.3125 220.25 C-223.9825 218.93 -223.6525 217.61 -223.3125 216.25 C-222.6525 216.25 -221.9925 216.25 -221.3125 216.25 C-221.044375 215.486875 -220.77625 214.72375 -220.5 213.9375 C-219.31365878 211.25262251 -218.37860333 210.23720678 -216.3125 208.25 C-215.17885268 206.96591607 -214.05432022 205.67374569 -212.9375 204.375 C-208.42566338 199.20104899 -203.73368334 194.46647593 -198.3125 190.25 C-197.6525 190.25 -196.9925 190.25 -196.3125 190.25 C-195.9825 189.26 -195.6525 188.27 -195.3125 187.25 C-193.9971659 186.54848848 -192.66132408 185.88474075 -191.3125 185.25 C-190.8896875 184.81429687 -190.466875 184.37859375 -190.03125 183.9296875 C-187.78176548 181.73132763 -185.30705806 180.11460315 -182.6875 178.375 C-181.16671068 177.35714888 -179.64598491 176.33920048 -178.12670898 175.3190918 C-176.3125 174.25 -176.3125 174.25 -173.95336914 173.28442383 C-171.36472244 172.15766166 -169.41189722 171.14594595 -167.3125 169.25 C-165.9829443 165.42656225 -166.01841697 161.70783317 -166 157.6875 C-165.90222495 155.42016711 -165.79534131 153.15321 -165.6796875 150.88671875 C-165.62780273 149.76185059 -165.57591797 148.63698242 -165.52246094 147.47802734 C-164.04126177 124.70545126 -155.31201266 98.0768804 -142.3125 79.25 C-141.6525 79.25 -140.9925 79.25 -140.3125 79.25 C-140.168125 78.63125 -140.02375 78.0125 -139.875 77.375 C-139.3125 75.25 -139.3125 75.25 -138.3125 73.25 C-137.6525 73.25 -136.9925 73.25 -136.3125 73.25 C-136.3125 72.26 -136.3125 71.27 -136.3125 70.25 C-135.6525 70.25 -134.9925 70.25 -134.3125 70.25 C-133.8175 68.27 -133.8175 68.27 -133.3125 66.25 C-132.6525 66.25 -131.9925 66.25 -131.3125 66.25 C-130.6525 64.6 -129.9925 62.95 -129.3125 61.25 C-128.6525 61.25 -127.9925 61.25 -127.3125 61.25 C-127.10625 60.528125 -126.9 59.80625 -126.6875 59.0625 C-125.21394406 56.0484083 -123.51240874 54.53879419 -120.890625 52.49609375 C-117.41078325 49.74839692 -114.52567604 46.54483187 -111.8125 43.0625 C-109.27362979 40.20627101 -107.79712556 39.50833701 -104.3125 38.25 C-103.9825 37.26 -103.6525 36.27 -103.3125 35.25 C-101.25 34.5625 -101.25 34.5625 -99.3125 34.25 C-99.3125 33.59 -99.3125 32.93 -99.3125 32.25 C-97.9140625 31.14013672 -97.9140625 31.14013672 -95.9375 29.9296875 C-95.20797119 29.48077148 -94.47844238 29.03185547 -93.72680664 28.56933594 C-92.93008545 28.09270508 -92.13336426 27.61607422 -91.3125 27.125 C-90.49450928 26.63290039 -89.67651855 26.14080078 -88.83374023 25.63378906 C-61.32398827 9.2816712 -32.16604678 0.03151762 0 0 Z " fill="#FD425A" transform="translate(255.3125,13.75)"/>
<path d="M0 0 C35.14864803 -0.6348047 35.14864803 -0.6348047 51 3 C52.25683594 3.2784375 53.51367188 3.556875 54.80859375 3.84375 C83.49741142 10.88693063 111.70252481 25.17597375 132 47 C133.2065625 48.2065625 133.2065625 48.2065625 134.4375 49.4375 C135.283125 50.283125 136.12875 51.12875 137 52 C137.53753906 52.47953125 138.07507813 52.9590625 138.62890625 53.453125 C165.33761653 78.21025937 180.48181307 118.18990059 183 154 C182.90203125 155.29808594 182.8040625 156.59617188 182.703125 157.93359375 C182.48178986 162.16024366 182.5200593 165.01900449 184 169 C188.37641382 173.27145722 194.20855408 175.78785424 199.56201172 178.61669922 C234.58947152 198.49108208 258.00059709 237.98719751 268.45458984 275.65063477 C270.9572346 285.15091064 272.31664613 294.41117548 272.37109375 304.23828125 C272.38012222 305.28034225 272.3891507 306.32240326 272.39845276 307.39604187 C272.4128696 309.59188001 272.42182048 311.78776026 272.42553711 313.98364258 C272.43733494 317.2665695 272.48652545 320.54755174 272.53710938 323.83007812 C272.80665383 359.00811359 260.10930338 392.67932942 238 420 C237.53561523 420.57717773 237.07123047 421.15435547 236.59277344 421.74902344 C213.47914502 450.26168876 182.50295664 470.63043555 146.875 479.75 C146.10051514 479.94883789 145.32603027 480.14767578 144.52807617 480.35253906 C132.0351173 483.38129258 119.62128665 484.38164275 106.8125 484.3125 C106.08977905 484.31034485 105.36705811 484.3081897 104.62243652 484.30596924 C93.19436904 484.25144782 82.14106707 483.70393192 71 481 C69.73373779 480.69400879 69.73373779 480.69400879 68.44189453 480.38183594 C56.4436135 477.38716961 45.08962346 473.47043182 34 468 C33.3105127 467.66145996 32.62102539 467.32291992 31.91064453 466.97412109 C29.82636566 465.93844565 27.75466073 464.88189379 25.6875 463.8125 C25.05859863 463.49168457 24.42969727 463.17086914 23.78173828 462.84033203 C20.35478538 461.00915747 18.0455241 459.33043815 16 456 C16.77601563 455.41734375 17.55203125 454.8346875 18.3515625 454.234375 C50.6842939 429.77730579 74.29756835 399.67730759 85 360 C85.27457031 359.0203125 85.54914063 358.040625 85.83203125 357.03125 C89.40345787 343.6603917 90.44316378 330.45304918 90.4375 316.6875 C90.43823517 315.90375 90.43897034 315.12 90.43972778 314.3125 C90.40491974 300.09206293 88.88504553 286.73077641 85 273 C84.75894531 272.13600586 84.51789063 271.27201172 84.26953125 270.38183594 C76.69364408 244.25705042 62.03600629 221.99672878 44 202 C43.32453125 201.25105469 42.6490625 200.50210938 41.953125 199.73046875 C35.40270558 192.858127 27.3427165 185.83880559 18.93013573 181.36885452 C16 179 16 179 15.26171303 175.72791672 C15.26724379 174.41897068 15.27277454 173.11002464 15.2784729 171.76141357 C15.27334635 171.03112355 15.2682198 170.30083354 15.2629379 169.54841352 C15.25305035 167.10006331 15.28605543 164.65417765 15.31884766 162.20605469 C15.32054001 160.45179299 15.31959029 158.69752704 15.31619263 156.94326782 C15.31446902 152.17882244 15.34977786 147.41528086 15.39163637 142.6510458 C15.4291097 137.67294823 15.43266605 132.69483062 15.43978882 127.71661377 C15.45844767 118.28881635 15.50769879 108.8614357 15.56788576 99.43382192 C15.63491854 88.70122323 15.66793177 77.96860477 15.69805837 67.2358489 C15.76079691 45.15699358 15.86755881 23.0785377 16 1 C10.72 1 5.44 1 0 1 C0 0.67 0 0.34 0 0 Z " fill="#4A7DEA" transform="translate(240,14)"/>
<path d="M0 0 C1.09139282 0.00930542 2.18278564 0.01861084 3.30725098 0.02819824 C5.95899956 0.05216639 8.61022336 0.08585174 11.26171875 0.12890625 C11.25562245 1.49527395 11.25562245 1.49527395 11.249403 2.88924503 C11.15393667 25.05665212 11.11365529 47.22356096 11.13474846 69.39117527 C11.14361913 80.11137199 11.13383193 90.83094468 11.08007812 101.55102539 C11.03327173 110.89503879 11.02151656 120.23832746 11.05180085 129.58242077 C11.06661354 134.53010816 11.06390895 139.47638408 11.01922226 144.42392159 C10.9776981 149.08265017 10.98310324 153.73898618 11.02424049 158.39769554 C11.03109929 160.10569799 11.02092612 161.81386846 10.99228859 163.52164459 C10.57511462 172.71312574 10.57511462 172.71312574 14.44670486 180.63999748 C16.98150813 182.42913513 19.47299491 183.78340026 22.26171875 185.12890625 C23.45753576 186.01706976 24.63330728 186.93452697 25.765625 187.90234375 C26.27383789 188.32966797 26.78205078 188.75699219 27.30566406 189.19726562 C27.80678711 189.62845703 28.30791016 190.05964844 28.82421875 190.50390625 C29.37303711 190.97376953 29.92185547 191.44363281 30.48730469 191.92773438 C61.50234783 218.7505745 82.75987487 258.5304574 86.48046875 299.54003906 C86.78376084 304.09510717 87.04623638 308.6179299 86.26171875 313.12890625 C76.67877966 321.71032214 59.88150725 325.33789375 47.63671875 328.12890625 C46.78674316 328.32403809 45.93676758 328.51916992 45.06103516 328.72021484 C3.70378225 337.45856347 -41.88261059 329.24458271 -77.3828125 306.41015625 C-86.80966857 300.10551869 -95.5077169 292.92628301 -103.73828125 285.12890625 C-104.69476563 284.236875 -105.65125 283.34484375 -106.63671875 282.42578125 C-136.98972036 253.54503517 -153.25366496 211.49338785 -154.73828125 170.12890625 C-156.05828125 169.79890625 -157.37828125 169.46890625 -158.73828125 169.12890625 C-158.07828125 168.79890625 -157.41828125 168.46890625 -156.73828125 168.12890625 C-156.33379186 165.93422047 -156.33379186 165.93422047 -156.24609375 163.265625 C-156.18333252 162.2437207 -156.12057129 161.22181641 -156.0559082 160.16894531 C-155.99234131 159.06260742 -155.92877441 157.95626953 -155.86328125 156.81640625 C-153.97709135 129.98635612 -147.28980318 100.65180008 -131.73828125 78.12890625 C-131.07828125 78.12890625 -130.41828125 78.12890625 -129.73828125 78.12890625 C-129.59390625 77.51015625 -129.44953125 76.89140625 -129.30078125 76.25390625 C-128.73828125 74.12890625 -128.73828125 74.12890625 -127.73828125 72.12890625 C-127.07828125 72.12890625 -126.41828125 72.12890625 -125.73828125 72.12890625 C-125.73828125 71.13890625 -125.73828125 70.14890625 -125.73828125 69.12890625 C-125.07828125 69.12890625 -124.41828125 69.12890625 -123.73828125 69.12890625 C-123.24328125 67.14890625 -123.24328125 67.14890625 -122.73828125 65.12890625 C-122.07828125 65.12890625 -121.41828125 65.12890625 -120.73828125 65.12890625 C-120.07828125 63.47890625 -119.41828125 61.82890625 -118.73828125 60.12890625 C-118.07828125 60.12890625 -117.41828125 60.12890625 -116.73828125 60.12890625 C-116.53203125 59.40703125 -116.32578125 58.68515625 -116.11328125 57.94140625 C-114.63972531 54.92731455 -112.93818999 53.41770044 -110.31640625 51.375 C-106.8365645 48.62730317 -103.95145729 45.42373812 -101.23828125 41.94140625 C-98.69941104 39.08517726 -97.22290681 38.38724326 -93.73828125 37.12890625 C-93.40828125 36.13890625 -93.07828125 35.14890625 -92.73828125 34.12890625 C-90.67578125 33.44140625 -90.67578125 33.44140625 -88.73828125 33.12890625 C-88.73828125 32.46890625 -88.73828125 31.80890625 -88.73828125 31.12890625 C-87.33984375 30.01904297 -87.33984375 30.01904297 -85.36328125 28.80859375 C-84.63375244 28.35967773 -83.90422363 27.91076172 -83.15258789 27.44824219 C-82.3558667 26.97161133 -81.55914551 26.49498047 -80.73828125 26.00390625 C-79.92029053 25.51180664 -79.1022998 25.01970703 -78.25952148 24.51269531 C-54.37931385 10.31802099 -28.18285942 -0.46575163 0 0 Z " fill="#FDBE00" transform="translate(244.73828125,14.87109375)"/>
<path d="M0 0 C35.14864803 -0.6348047 35.14864803 -0.6348047 51 3 C52.25683594 3.2784375 53.51367188 3.556875 54.80859375 3.84375 C83.49741142 10.88693063 111.70252481 25.17597375 132 47 C133.2065625 48.2065625 133.2065625 48.2065625 134.4375 49.4375 C135.283125 50.283125 136.12875 51.12875 137 52 C137.53753906 52.47953125 138.07507813 52.9590625 138.62890625 53.453125 C170.61526359 83.1022746 181.88507412 128.14672991 184 170 C179.39978707 169.31981287 175.36367367 167.57267768 171.125 165.75 C130.77670195 148.93030448 86.31723295 147.79831364 45.4375 163.8125 C36.01083778 167.70831544 26.15722147 171.8295491 18 178 C17.34 178 16.68 178 16 178 C16 119.59 16 61.18 16 1 C10.72 1 5.44 1 0 1 C0 0.67 0 0.34 0 0 Z " fill="#00B24A" transform="translate(240,14)"/>
<path d="M0 0 C0 58.41 0 116.82 0 177 C-3.26167754 175.69532898 -6.0884252 174.49123032 -9.1171875 172.828125 C-25.69918989 163.83381457 -41.52462437 157.86084143 -60 154 C-60.80655029 153.81163574 -61.61310059 153.62327148 -62.4440918 153.42919922 C-71.33733147 151.5251458 -80.25954498 151.60113282 -89.3125 151.625 C-90.15725891 151.6262085 -91.00201782 151.62741699 -91.87237549 151.62866211 C-115.17403909 151.71909191 -138.53628935 155.39640077 -159.5078125 166.25 C-163 168 -163 168 -166 168 C-166 168.66 -166 169.32 -166 170 C-167.32 169.67 -168.64 169.34 -170 169 C-169.34 168.67 -168.68 168.34 -168 168 C-167.59551061 165.80531422 -167.59551061 165.80531422 -167.5078125 163.13671875 C-167.44505127 162.11481445 -167.38229004 161.09291016 -167.31762695 160.04003906 C-167.25406006 158.93370117 -167.19049316 157.82736328 -167.125 156.6875 C-165.2388101 129.85744987 -158.55152193 100.52289383 -143 78 C-142.34 78 -141.68 78 -141 78 C-140.855625 77.38125 -140.71125 76.7625 -140.5625 76.125 C-140 74 -140 74 -139 72 C-138.34 72 -137.68 72 -137 72 C-137 71.01 -137 70.02 -137 69 C-136.34 69 -135.68 69 -135 69 C-134.505 67.02 -134.505 67.02 -134 65 C-133.34 65 -132.68 65 -132 65 C-131.34 63.35 -130.68 61.7 -130 60 C-129.34 60 -128.68 60 -128 60 C-127.79375 59.278125 -127.5875 58.55625 -127.375 57.8125 C-125.90144406 54.7984083 -124.19990874 53.28879419 -121.578125 51.24609375 C-118.09828325 48.49839692 -115.21317604 45.29483187 -112.5 41.8125 C-109.96112979 38.95627101 -108.48462556 38.25833701 -105 37 C-104.67 36.01 -104.34 35.02 -104 34 C-101.9375 33.3125 -101.9375 33.3125 -100 33 C-100 32.34 -100 31.68 -100 31 C-98.6015625 29.89013672 -98.6015625 29.89013672 -96.625 28.6796875 C-95.89547119 28.23077148 -95.16594238 27.78185547 -94.41430664 27.31933594 C-93.61758545 26.84270508 -92.82086426 26.36607422 -92 25.875 C-91.18200928 25.38290039 -90.36401855 24.89080078 -89.52124023 24.38378906 C-60.74091729 7.27642897 -34.2266621 0 0 0 Z " fill="#8FCA1B" transform="translate(256,15)"/>
<path d="M0 0 C1.23017349 0.00214508 1.23017349 0.00214508 2.48519897 0.0043335 C16.90431603 0.0661619 30.52025268 1.52745751 44.4375 5.5 C45.583396 5.82097656 45.583396 5.82097656 46.75244141 6.1484375 C61.75546692 10.51687629 77.72704607 17.39974223 90.4375 26.5 C87.51803779 29.57745664 84.44496712 32.03196386 81 34.5 C49.9558104 57.55598959 24.61725585 94.41463898 18.74511719 133.20166016 C17.44122823 142.9435734 16.42463482 152.72175773 15.4375 162.5 C0.14313463 156.51024017 -12.75571412 145.6853761 -24.5625 134.5 C-25.51898438 133.60796875 -26.47546875 132.7159375 -27.4609375 131.796875 C-58.5036436 102.25987817 -74.23272727 59.68589336 -75.5625 17.5 C-66.03050214 13.25157562 -56.48804491 9.24437476 -46.5 6.1875 C-45.77200195 5.95788574 -45.04400391 5.72827148 -44.29394531 5.49169922 C-29.79481214 1.22192002 -15.04730349 -0.08563241 0 0 Z " fill="#FED92C" transform="translate(165.5625,165.5)"/>
<path d="M0 0 C0.72318414 17.67783443 -2.08285389 34.3672261 -8 51 C-8.44683957 52.3163299 -8.89345231 53.63273681 -9.33984375 54.94921875 C-17.02546006 77.04164068 -29.69127382 96.32271504 -46 113 C-46.94380061 114.00418285 -47.88649258 115.00940873 -48.828125 116.015625 C-60.11080742 127.89353405 -73.58493125 137.26741345 -88 145 C-88.66 145 -89.32 145 -90 145 C-90.01417969 144.13503906 -90.02835937 143.27007812 -90.04296875 142.37890625 C-91.63044077 100.46106404 -109.25880361 63.75698531 -137 33 C-137.67546875 32.25105469 -138.3509375 31.50210938 -139.046875 30.73046875 C-146.64913431 22.75459413 -155.7814777 15.99624247 -165 10 C-121.11291932 -28.03546993 -48.83475016 -22.89496291 0 0 Z " fill="#4BB8EB" transform="translate(421,183)"/>
<path d="M0 0 C0.33 0 0.66 0 1 0 C2.20388338 42.31427149 -12.74600982 82.45872672 -41 114 C-41.76183594 114.89460938 -42.52367187 115.78921875 -43.30859375 116.7109375 C-48.66233796 122.91402794 -54.53664262 127.98547575 -61 133 C-62.0652767 133.87581363 -63.12904648 134.75346293 -64.19140625 135.6328125 C-65.25175478 136.4854324 -66.31293262 137.33702215 -67.375 138.1875 C-68.33148438 138.96480469 -69.28796875 139.74210938 -70.2734375 140.54296875 C-73 142 -73 142 -75.4375 141.55078125 C-78.68629681 139.58466489 -81.67179163 137.37669376 -84.625 135 C-85.23674072 134.51233154 -85.84848145 134.02466309 -86.47875977 133.5222168 C-94.98701282 126.67421866 -103.12993538 119.52784108 -110 111 C-110.75796875 110.06800781 -111.5159375 109.13601563 -112.296875 108.17578125 C-128.56868029 87.81680597 -140.24009007 64.47388735 -146 39 C-146.1959375 38.15566406 -146.391875 37.31132812 -146.59375 36.44140625 C-149.1454796 24.71470774 -149.13632491 12.93600363 -149 1 C-143.57725977 2.71244428 -138.36835623 4.67085892 -133.125 6.875 C-103.86458519 18.84958385 -68.53523411 21.04963762 -37.75 14.0625 C-36.83903564 13.8572168 -35.92807129 13.65193359 -34.98950195 13.44042969 C-16.20990736 9.20756876 -16.20990736 9.20756876 0 0 Z " fill="#FE435B" transform="translate(330,328)"/>
<path d="M0 0 C6.32294713 3.51274841 11.2643817 6.54729035 16.5 11.25 C17.14727051 11.82282715 17.79454102 12.3956543 18.46142578 12.98583984 C49.99351106 41.09583835 72.53118896 81.0473254 75.375 123.7578125 C75.65501814 131.23364568 75.65501814 131.23364568 75 135 C56.94624574 151.16693713 22.51487466 153 0 153 C0 102.51 0 52.02 0 0 Z " fill="#FE9721" transform="translate(256,193)"/>
<path d="M0 0 C5.42274023 1.71244428 10.63164377 3.67085892 15.875 5.875 C35.20257368 13.7846504 54.20233784 15.70014611 75 17 C75 57.92 75 98.84 75 141 C62.65759813 133.14574427 62.65759813 133.14574427 57.6875 128.375 C54.79975197 125.62513898 51.9322144 122.90888519 48.84765625 120.3828125 C25.2152544 100.60810039 9.64730544 67.39849964 3 38 C2.8040625 37.15566406 2.608125 36.31132812 2.40625 35.44140625 C-0.1454796 23.71470774 -0.13632491 11.93600363 0 0 Z " fill="#FE7A49" transform="translate(181,329)"/>
<path d="M0 0 C0.66 0.33 1.32 0.66 2 1 C0.43910887 2.7306191 -1.12378912 4.45942827 -2.6875 6.1875 C-3.55761719 7.15042969 -4.42773438 8.11335937 -5.32421875 9.10546875 C-7.82427741 11.80991176 -10.37781072 14.41560804 -13 17 C-13.66 16.67 -14.32 16.34 -15 16 C-11.1366276 11.51314387 -7.24875802 7.13073696 -3 3 C-2.401875 2.401875 -1.80375 1.80375 -1.1875 1.1875 C-0.795625 0.795625 -0.40375 0.40375 0 0 Z " fill="#7A212C" transform="translate(54,206)"/>
<path d="M0 0 C0.66 0.33 1.32 0.66 2 1 C-1.96 4.96 -5.92 8.92 -10 13 C-10.66 12.67 -11.32 12.34 -12 12 C-8.57833482 7.29521038 -4.42094803 3.72346836 0 0 Z " fill="#75A515" transform="translate(140,61)"/>
</svg>
