<?xml version="1.0" encoding="UTF-8"?>
<svg version="1.1" xmlns="http://www.w3.org/2000/svg" width="256" height="256">
<path d="M0 0 C1.57648315 0.01244751 1.57648315 0.01244751 3.18481445 0.02514648 C20.7111602 0.40483218 35.8964528 7.00738176 48.39453125 19.421875 C60.91161306 32.55426884 67.649356 49.08000384 67.375 67.1875 C67.3740332 68.42306641 67.3740332 68.42306641 67.37304688 69.68359375 C67.34375764 73.72550752 67.18914172 77.49503817 66.1875 81.4375 C67.04730469 81.67597656 67.90710938 81.91445312 68.79296875 82.16015625 C83.25611844 87.60256125 93.43687536 101.57592524 99.75 115.03515625 C107.20423776 132.67820268 106.42987007 151.35357158 99.67578125 169.10546875 C92.09726662 186.07258942 78.37508582 198.58062957 61.1875 205.4375 C42.95426301 211.6207339 24.7209306 209.98381688 7.1875 202.4375 C6.33285156 201.86902344 5.47820312 201.30054688 4.59765625 200.71484375 C2.26933949 199.21090089 2.26933949 199.21090089 -0.33203125 199.6015625 C-2.8946817 200.46519588 -5.12679374 201.51802386 -7.5 202.8125 C-23.50900447 211.05523147 -41.69298347 211.39735993 -58.8125 206.4375 C-75.93887553 200.84175354 -89.77657582 188.87014659 -98.12109375 172.98046875 C-105.55637423 157.40587431 -107.52171402 139.29224403 -102.9140625 122.51953125 C-96.55184791 104.71886703 -84.90484319 89.96751626 -67.8125 81.4375 C-67.1525 81.4375 -66.4925 81.4375 -65.8125 81.4375 C-65.97234375 80.798125 -66.1321875 80.15875 -66.296875 79.5 C-69.41352686 60.98897681 -65.39251839 43.14731977 -54.9296875 27.6484375 C-48.22717913 18.88361887 -40.710081 12.05673182 -30.875 7.0625 C-29.92753906 6.57982666 -29.92753906 6.57982666 -28.9609375 6.08740234 C-19.57417365 1.58680132 -10.3660285 -0.10633112 0 0 Z " fill="#373738" transform="translate(127.8125,23.5625)"/>
<path d="M0 0 C2.51511407 2.22010821 4.88875169 4.50891163 7.22265625 6.91796875 C7.80917969 7.50707031 8.39570313 8.09617187 9 8.703125 C19.32096501 19.81194994 20.90779301 33.20396204 20.59375 47.703125 C19.92994357 60.83987794 12.78609556 71.94562362 3.34765625 80.79296875 C-0.98308955 84.32861669 -5.63981179 86.75688058 -10.77734375 88.91796875 C-11.50050781 89.23894531 -12.22367187 89.55992187 -12.96875 89.890625 C-23.86094919 93.96336035 -38.36478942 93.52269761 -49.078125 89.234375 C-62.95908447 82.46464513 -71.81985771 73.21593525 -77.77734375 58.91796875 C-78.15117188 58.03753906 -78.525 57.15710938 -78.91015625 56.25 C-82.1622911 43.75418455 -81.3315609 28.14433566 -74.77734375 16.91796875 C-72.66865846 13.67229637 -70.37637728 10.78197967 -67.77734375 7.91796875 C-66.99423828 6.99757813 -66.99423828 6.99757813 -66.1953125 6.05859375 C-49.81025914 -11.96097832 -19.51928767 -14.63260243 0 0 Z " fill="#EE524F" transform="translate(157.77734375,49.08203125)"/>
<path d="M0 0 C1.53515625 2.01953125 1.53515625 2.01953125 3.0625 4.8125 C11.86923168 19.35950053 25.78959186 29.68230775 42.234375 34.1015625 C51.90663175 36.23252144 62.13968307 35.93984735 72 36 C72.87161511 51.82465659 70.92792725 65.60509419 60 78 C54.05609229 84.23409849 47.99625695 88.77875905 40 92 C39.25621094 92.31839844 38.51242188 92.63679688 37.74609375 92.96484375 C25.67340072 97.39762613 11.62564538 95.97353813 0 91 C-13.41605825 84.72348152 -21.55375344 74.44542119 -27 61 C-30.73904769 50.34747821 -30.96690274 35.8384086 -26.32421875 25.4453125 C-21.12628646 15.84677087 -12.47026056 0 0 0 Z " fill="#F9BF2D" transform="translate(69,121)"/>
<path d="M0 0 C14.73097952 8.09166481 22.49851556 18.83089796 27.58203125 34.83203125 C30.15742401 48.19037686 27.34843773 61.67813275 20 73.0625 C19.0183207 74.38875865 18.0200402 75.7030134 17 77 C16.2575 78.03125 15.515 79.0625 14.75 80.125 C5.76207721 89.52146473 -6.27444824 95.3943369 -19.26171875 96.203125 C-29.35135503 96.3411816 -38.15786172 95.01851091 -47 90 C-46.56429687 89.35675781 -46.12859375 88.71351563 -45.6796875 88.05078125 C-33.91812748 70.20477784 -28.72195206 52.30731161 -32 31 C-31.09121094 30.48953125 -31.09121094 30.48953125 -30.1640625 29.96875 C-16.8860636 22.28793833 -7.7647193 13.31442463 0 0 Z " fill="#1E87E3" transform="translate(188,120)"/>
<path d="M0 0 C0.66 0.33 1.32 0.66 2 1 C-3.61 6.61 -9.22 12.22 -15 18 C-15 12.50089132 -9.68936771 8.76735434 -6 5 C-4.05347234 3.22256464 -2.09090037 1.6083849 0 0 Z " fill="#5E3939" transform="translate(89,35)"/>
</svg>
