<?xml version="1.0" encoding="UTF-8"?>
<svg version="1.1" xmlns="http://www.w3.org/2000/svg" width="70" height="70">
<path d="M0 0 C1.32 0 2.64 0 4 0 C7.53320008 6.22026163 10.63695106 12.24843159 13 19 C13.804375 20.7015625 13.804375 20.7015625 14.625 22.4375 C16.25036975 26.64868526 16.7057526 30.5254103 17 35 C16.34 35 15.68 35 15 35 C15.33 35.99 15.66 36.98 16 38 C15.34 38.66 14.68 39.32 14 40 C13.67 40.99 13.34 41.98 13 43 C9.49769869 45.86551925 6.56023779 46.4183799 2.05859375 46.22265625 C-2.1755403 45.76469488 -5.78365206 45.25829097 -8.8125 42.125 C-9.4003125 41.073125 -9.4003125 41.073125 -10 40 C-10.556875 39.071875 -10.556875 39.071875 -11.125 38.125 C-13.35670939 32.70513435 -13.19572712 28.35639262 -11 23 C-9.53237284 19.92575036 -8.00789885 16.89020528 -6.4375 13.8671875 C-5.140298 11.27983351 -4.0521735 8.6933843 -3 6 C-2.01517978 3.99248185 -1.01847486 1.99065541 0 0 Z " fill="#1B1B1B" transform="translate(33,3)"/>
<path d="M0 0 C2.125 0.9375 2.125 0.9375 4 2 C3.67 2.99 3.34 3.98 3 5 C-0.0625 6.1875 -0.0625 6.1875 -3 7 C-3 7.66 -3 8.32 -3 9 C-3.66 9 -4.32 9 -5 9 C-5 9.66 -5 10.32 -5 11 C-4.34 11.33 -3.68 11.66 -3 12 C-2.38898437 12.30808594 -1.77796875 12.61617187 -1.1484375 12.93359375 C1.01367379 14.00678717 3.1832202 15.05120511 5.375 16.0625 C6.10460938 16.40410156 6.83421875 16.74570312 7.5859375 17.09765625 C14.10904284 19.53590436 20.94612922 19.18330038 27.8125 19.1875 C29.37581055 19.20586914 29.37581055 19.20586914 30.97070312 19.22460938 C39.11656854 19.23994999 46.52738148 18.41605418 54 15 C54.7425 14.67 55.485 14.34 56.25 14 C58.17334381 13.11556254 58.17334381 13.11556254 59 11 C59.66 11 60.32 11 61 11 C61 10.34 61 9.68 61 9 C60.01 8.505 60.01 8.505 59 8 C58.360625 7.505 57.72125 7.01 57.0625 6.5 C54.97699265 4.82441763 54.97699265 4.82441763 52 4 C52 3.01 52 2.02 52 1 C54.6875 0.625 54.6875 0.625 58 1 C61.20424044 3.92561084 62.80878467 5.80490419 63.5 10.125 C62.80855259 14.1008226 61.26369399 15.83559625 58.359375 18.51171875 C55.22784862 20.487069 52.09551819 21.04045384 48.5 21.625 C47.76531494 21.74834717 47.03062988 21.87169434 46.27368164 21.9987793 C40.34907028 22.92471301 34.42202029 23.46250844 28.4375 23.8125 C27.61765625 23.8655127 26.7978125 23.91852539 25.953125 23.97314453 C20.54203027 24.21920369 16.21318776 23.44099854 11 22 C9.68 22 8.36 22 7 22 C7 21.34 7 20.68 7 20 C6.46375 20.226875 5.9275 20.45375 5.375 20.6875 C1.8125101 21.15624867 0.00269342 19.87668338 -3 18 C-5.71246701 15.3589137 -6.84904366 13.78832756 -7.5625 10.0625 C-6.77590045 5.77990245 -5.03113127 4.10330106 -2 1 C-1.34 0.67 -0.68 0.34 0 0 Z " fill="#373737" transform="translate(7,44)"/>
<path d="M0 0 C1.32 0 2.64 0 4 0 C4 1.98 4 3.96 4 6 C14.68333469 10.42069022 25.31666531 10.42069022 36 6 C36 4.02 36 2.04 36 0 C38.475 0.495 38.475 0.495 41 1 C41.79953138 4.28696233 42.09658936 5.71023192 41 9 C31.63594431 15.24270379 15.6820559 13.99221291 5 12 C1.34915253 10.32669491 0.24461704 9.36692556 -2 6 C-1.45945946 1.45945946 -1.45945946 1.45945946 0 0 Z " fill="#7D7D7D" transform="translate(15,48)"/>
<path d="M0 0 C2.125 0.9375 2.125 0.9375 4 2 C3.67 2.99 3.34 3.98 3 5 C-0.0625 6.1875 -0.0625 6.1875 -3 7 C-3 7.66 -3 8.32 -3 9 C-3.66 9 -4.32 9 -5 9 C-5 9.66 -5 10.32 -5 11 C-4.34 11.33 -3.68 11.66 -3 12 C-2.38898437 12.30808594 -1.77796875 12.61617187 -1.1484375 12.93359375 C1.01367379 14.00678717 3.1832202 15.05120511 5.375 16.0625 C6.10460938 16.40410156 6.83421875 16.74570312 7.5859375 17.09765625 C13.75610081 19.40397943 20.36698731 19.29353742 26.875 19.5625 C28.33679687 19.62727539 28.33679687 19.62727539 29.828125 19.69335938 C32.21862802 19.79882274 34.60922444 19.90094175 37 20 C37 20.33 37 20.66 37 21 C27.1 21.33 17.2 21.66 7 22 C7 21.34 7 20.68 7 20 C6.46375 20.226875 5.9275 20.45375 5.375 20.6875 C1.8125101 21.15624867 0.00269342 19.87668338 -3 18 C-5.71246701 15.3589137 -6.84904366 13.78832756 -7.5625 10.0625 C-6.77590045 5.77990245 -5.03113127 4.10330106 -2 1 C-1.34 0.67 -0.68 0.34 0 0 Z " fill="#7C7C7C" transform="translate(7,44)"/>
<path d="M0 0 C2.00720923 0.28674418 4.0085944 0.61866701 6 1 C6 1.99 6 2.98 6 4 C4.11197917 4.22786458 2.22395833 4.45572917 0.3359375 4.68359375 C-1.32712319 4.90885782 -2.98358736 5.18533471 -4.6328125 5.49609375 C-9.16291844 6.17403304 -13.67792079 6.40100765 -18.25 6.625 C-19.16007812 6.6765625 -20.07015625 6.728125 -21.0078125 6.78125 C-21.87664063 6.82507813 -22.74546875 6.86890625 -23.640625 6.9140625 C-24.82446777 6.9752124 -24.82446777 6.9752124 -26.03222656 7.03759766 C-28 7 -28 7 -30 6 C-30 5.34 -30 4.68 -30 4 C-29.16190796 3.970271 -29.16190796 3.970271 -28.30688477 3.93994141 C-25.72502582 3.8434781 -23.14384608 3.73430188 -20.5625 3.625 C-19.68400391 3.5940625 -18.80550781 3.563125 -17.90039062 3.53125 C-8.34023619 3.54419386 -8.34023619 3.54419386 0 0 Z " fill="#464646" transform="translate(54,61)"/>
<path d="M0 0 C1.65 0.33 3.3 0.66 5 1 C5.79953138 4.28696233 6.09658936 5.71023192 5 9 C0.94785864 11.54436783 -2.21512065 12.65248355 -7 12 C-7.66 11.01 -8.32 10.02 -9 9 C-6.03 8.01 -3.06 7.02 0 6 C0 4.02 0 2.04 0 0 Z " fill="#919191" transform="translate(51,48)"/>
<path d="M0 0 C2.125 0.9375 2.125 0.9375 4 2 C3.67 2.99 3.34 3.98 3 5 C-0.0625 6.1875 -0.0625 6.1875 -3 7 C-3 7.66 -3 8.32 -3 9 C-3.66 9 -4.32 9 -5 9 C-5 9.66 -5 10.32 -5 11 C-4.34 11.33 -3.68 11.66 -3 12 C-1.9805881 12.98020375 -0.97753644 13.97803008 0 15 C-1.8125 15.6875 -1.8125 15.6875 -4 16 C-5.75 14.9375 -5.75 14.9375 -7 13 C-7.53983064 9.96345265 -7.61189725 7.9790356 -5.9453125 5.3125 C-4.15688105 3.1113536 -2.55864614 1.27932307 0 0 Z " fill="#404040" transform="translate(7,44)"/>
<path d="M0 0 C7.59 0 15.18 0 23 0 C19.82141437 3.17858563 16.54807355 3.15316478 12.1875 3.1875 C7.75425844 3.15466117 4.17453872 2.45201347 0 1 C0 0.67 0 0.34 0 0 Z " fill="#404040" transform="translate(23,58)"/>
<path d="M0 0 C1.0513916 0.31916382 1.0513916 0.31916382 2.12402344 0.64477539 C3.78267464 0.7877567 5.44511034 0.89018764 7.10839844 0.96118164 C8.51025391 1.02402344 8.51025391 1.02402344 9.94042969 1.08813477 C10.90851562 1.12745117 11.87660156 1.16676758 12.87402344 1.20727539 C13.85757813 1.25045898 14.84113281 1.29364258 15.85449219 1.33813477 C18.27753619 1.44399591 20.70067884 1.5460771 23.12402344 1.64477539 C23.12402344 1.97477539 23.12402344 2.30477539 23.12402344 2.64477539 C18.83306175 2.86986627 14.54132471 3.07201491 10.24902344 3.26977539 C9.02570312 3.33422852 7.80238281 3.39868164 6.54199219 3.46508789 C4.79208984 3.54243164 4.79208984 3.54243164 3.00683594 3.62133789 C1.38865967 3.69989014 1.38865967 3.69989014 -0.26220703 3.7800293 C-2.87597656 3.64477539 -2.87597656 3.64477539 -4.87597656 1.64477539 C-1.87597656 -0.35522461 -1.87597656 -0.35522461 0 0 Z " fill="#6E6E6E" transform="translate(20.8759765625,62.355224609375)"/>
<path d="M0 0 C0.99 1.32 1.98 2.64 3 4 C1.375 5.625 1.375 5.625 -1 7 C-4.25 6.1875 -4.25 6.1875 -7 5 C-7 4.34 -7 3.68 -7 3 C-6.21625 2.690625 -5.4325 2.38125 -4.625 2.0625 C-2.07669872 1.07124962 -2.07669872 1.07124962 0 0 Z " fill="#8D8D8D" transform="translate(64,57)"/>
<path d="M0 0 C1.32 0.66 2.64 1.32 4 2 C3.67 2.99 3.34 3.98 3 5 C0.4375 6.1875 0.4375 6.1875 -2 7 C-2 6.34 -2 5.68 -2 5 C-2.66 4.67 -3.32 4.34 -4 4 C-2.68 2.68 -1.36 1.36 0 0 Z " fill="#8C8C8C" transform="translate(7,44)"/>
<path d="M0 0 C0 0.99 0 1.98 0 3 C-4.29 2.67 -8.58 2.34 -13 2 C-13 1.67 -13 1.34 -13 1 C-8.20862412 -0.6290678 -4.94367454 -1.20577428 0 0 Z " fill="#686868" transform="translate(60,62)"/>
<path d="M0 0 C1.98 0 3.96 0 6 0 C6.66 1.32 7.32 2.64 8 4 C7.01 4.66 6.02 5.32 5 6 C2.5 4.6875 2.5 4.6875 0 3 C0 2.01 0 1.02 0 0 Z " fill="#808080" transform="translate(59,45)"/>
<path d="M0 0 C2.31 0.66 4.62 1.32 7 2 C7 2.33 7 2.66 7 3 C1.04296875 4.7578125 1.04296875 4.7578125 -1 5 C-1.99 4.34 -2.98 3.68 -4 3 C-2.68 2.67 -1.36 2.34 0 2 C0 1.34 0 0.68 0 0 Z " fill="#848484" transform="translate(21,55)"/>
<path d="M0 0 C0 0.99 0 1.98 0 3 C-2.875 3.1875 -2.875 3.1875 -6 3 C-6.66 2.01 -7.32 1.02 -8 0 C-4.71023192 -1.09658936 -3.28696233 -0.79953138 0 0 Z " fill="#777777" transform="translate(50,57)"/>
<path d="M0 0 C2.4375 0.375 2.4375 0.375 5 1 C5.33 1.66 5.66 2.32 6 3 C5.01 4.485 5.01 4.485 4 6 C4 5.34 4 4.68 4 4 C3.01 3.67 2.02 3.34 1 3 C0.67 2.01 0.34 1.02 0 0 Z " fill="#7A7A7A" transform="translate(51,48)"/>
<path d="M0 0 C0.99 0.33 1.98 0.66 3 1 C2.67 1.99 2.34 2.98 2 4 C1.01 4 0.02 4 -1 4 C-1.33 5.32 -1.66 6.64 -2 8 C-2.125 5.125 -2.125 5.125 -2 2 C-1.34 1.34 -0.68 0.68 0 0 Z " fill="#363636" transform="translate(2,49)"/>
<path d="" fill="#FFFFFF" transform="translate(0,0)"/>
<path d="" fill="#FFFFFF" transform="translate(0,0)"/>
<path d="" fill="#FFFFFF" transform="translate(0,0)"/>
<path d="" fill="#FFFFFF" transform="translate(0,0)"/>
<path d="" fill="#FFFFFF" transform="translate(0,0)"/>
<path d="" fill="#FFFFFF" transform="translate(0,0)"/>
<path d="" fill="#FFFFFF" transform="translate(0,0)"/>
<path d="" fill="#FFFFFF" transform="translate(0,0)"/>
<path d="" fill="#FFFFFF" transform="translate(0,0)"/>
<path d="" fill="#FFFFFF" transform="translate(0,0)"/>
<path d="" fill="#FFFFFF" transform="translate(0,0)"/>
<path d="" fill="#FFFFFF" transform="translate(0,0)"/>
<path d="" fill="#FFFFFF" transform="translate(0,0)"/>
<path d="" fill="#FFFFFF" transform="translate(0,0)"/>
<path d="" fill="#FFFFFF" transform="translate(0,0)"/>
<path d="" fill="#FFFFFF" transform="translate(0,0)"/>
<path d="" fill="#FFFFFF" transform="translate(0,0)"/>
<path d="" fill="#FFFFFF" transform="translate(0,0)"/>
<path d="" fill="#FFFFFF" transform="translate(0,0)"/>
<path d="" fill="#FFFFFF" transform="translate(0,0)"/>
<path d="" fill="#FFFFFF" transform="translate(0,0)"/>
</svg>
