<?xml version="1.0" encoding="UTF-8"?>
<svg version="1.1" xmlns="http://www.w3.org/2000/svg" width="26" height="26">
<path d="M0 0 C3.3 0 6.6 0 10 0 C10.33 0.99 10.66 1.98 11 3 C11.969375 2.979375 12.93875 2.95875 13.9375 2.9375 C17 3 17 3 18 4 C18.09860131 5.40348735 18.13078937 6.81180477 18.1328125 8.21875 C18.13474609 9.49298828 18.13474609 9.49298828 18.13671875 10.79296875 C18.13285156 11.68628906 18.12898438 12.57960938 18.125 13.5 C18.13080078 14.83998047 18.13080078 14.83998047 18.13671875 16.20703125 C18.13542969 17.05652344 18.13414063 17.90601562 18.1328125 18.78125 C18.13168457 19.56564453 18.13055664 20.35003906 18.12939453 21.15820312 C18 23 18 23 17 24 C15.23140807 24.09946453 13.45888549 24.13080217 11.6875 24.1328125 C10.61242187 24.13410156 9.53734375 24.13539062 8.4296875 24.13671875 C7.29789063 24.13285156 6.16609375 24.12898438 5 24.125 C3.86820313 24.12886719 2.73640625 24.13273437 1.5703125 24.13671875 C0.49523437 24.13542969 -0.57984375 24.13414063 -1.6875 24.1328125 C-2.68136719 24.13168457 -3.67523438 24.13055664 -4.69921875 24.12939453 C-7 24 -7 24 -8 23 C-8.09860131 21.59651265 -8.13078937 20.18819523 -8.1328125 18.78125 C-8.13410156 17.93175781 -8.13539062 17.08226563 -8.13671875 16.20703125 C-8.13285156 15.31371094 -8.12898437 14.42039062 -8.125 13.5 C-8.12886719 12.60667969 -8.13273438 11.71335937 -8.13671875 10.79296875 C-8.13542969 9.94347656 -8.13414063 9.09398437 -8.1328125 8.21875 C-8.13168457 7.43435547 -8.13055664 6.64996094 -8.12939453 5.84179688 C-8 4 -8 4 -7 3 C-5.00041636 2.95919217 -2.99954746 2.95745644 -1 3 C-0.67 2.01 -0.34 1.02 0 0 Z M3 5 C7 6 7 6 7 6 Z M-4 8 C-4 11.63 -4 15.26 -4 19 C-2.35 19 -0.7 19 1 19 C0.649375 18.484375 0.29875 17.96875 -0.0625 17.4375 C-1.3615641 14.05993333 -0.67217681 11.49531943 0 8 C-1.32 8 -2.64 8 -4 8 Z M10 8 C10.20625 9.0725 10.4125 10.145 10.625 11.25 C10.9876191 14.87619096 10.98362069 16.08291076 9 19 C10.65 19 12.3 19 14 19 C14 15.37 14 11.74 14 8 C12.68 8 11.36 8 10 8 Z M4 11 C4 12.32 4 13.64 4 15 C4.99 14.67 5.98 14.34 7 14 C6.67 13.01 6.34 12.02 6 11 C5.34 11 4.68 11 4 11 Z " fill="#1D1D1D" transform="translate(8,1)"/>
</svg>
