<?xml version="1.0" encoding="UTF-8"?>
<svg version="1.1" xmlns="http://www.w3.org/2000/svg" width="104" height="104">
<path d="M0 0 C1.60138494 -0.01654759 3.20269637 -0.04382244 4.80371094 -0.08203125 C7.11684327 -0.13692965 9.42824647 -0.15869153 11.74194336 -0.17333984 C12.45357132 -0.19600922 13.16519928 -0.21867859 13.89839172 -0.24203491 C17.77159534 -0.22565381 19.41215807 0.19822716 22.44384766 2.68359375 C28.59741211 10.3028241 28.59741211 10.3028241 28.59741211 13.35009766 C29.89936523 13.30369141 31.20131836 13.25728516 32.54272461 13.20947266 C34.26926407 13.17193919 35.99582847 13.13554072 37.72241211 13.10009766 C38.57834961 13.06658203 39.43428711 13.03306641 40.31616211 12.99853516 C46.10424092 12.90948779 49.13193599 13.61222308 53.59741211 17.35009766 C55.47264235 19.22532789 54.76449722 22.41736302 54.7902832 24.91772461 C54.80254944 25.94706116 54.80254944 25.94706116 54.81506348 26.99719238 C54.83996002 29.2775789 54.8564449 31.55790296 54.87084961 33.83837891 C54.87617329 34.61578115 54.88149696 35.3931834 54.88698196 36.1941433 C54.91373314 40.30951325 54.93310094 44.42485267 54.94750977 48.5402832 C54.96415525 52.79442249 55.00892544 57.04778666 55.05988121 61.30163288 C55.09351918 64.56929933 55.10508338 67.83678117 55.11073685 71.10460472 C55.11745991 72.67274074 55.13270954 74.24086416 55.15662766 75.80883217 C55.18820909 78.00462748 55.18832808 80.19832483 55.1809082 82.39428711 C55.18899506 83.64369583 55.19708191 84.89310455 55.20541382 86.18037415 C54.59741211 89.35009766 54.59741211 89.35009766 52.1859436 91.72233582 C47.73913827 94.51864718 44.35799246 94.51029983 39.20385742 94.52709961 C38.33538177 94.53367081 37.46690613 94.540242 36.57211304 94.54701233 C33.68992023 94.56676795 30.80777961 94.57841353 27.92553711 94.58837891 C26.45012577 94.5944922 26.45012577 94.5944922 24.94490814 94.60072899 C19.73793242 94.62160031 14.53098313 94.6358969 9.32397461 94.64526367 C3.94586445 94.65632473 -1.43183157 94.69071821 -6.80979538 94.73043537 C-10.94481169 94.75658525 -15.07972914 94.76495412 -19.21482086 94.76854515 C-21.197144 94.77341604 -23.17946258 94.78504431 -25.16170502 94.80358315 C-27.93862153 94.82793772 -30.7144644 94.82701619 -33.49145508 94.82006836 C-34.3083078 94.83287842 -35.12516052 94.84568848 -35.96676636 94.85888672 C-41.75638636 94.8061718 -45.21476376 93.53792178 -49.40258789 89.35009766 C-49.52326921 87.16327227 -49.57287336 84.97250703 -49.59545898 82.7824707 C-49.60363647 82.09624634 -49.61181396 81.41002197 -49.62023926 80.70300293 C-49.6451358 78.42261642 -49.66162069 76.14229235 -49.67602539 73.86181641 C-49.68134907 73.08441416 -49.68667274 72.30701191 -49.69215775 71.50605202 C-49.71890892 67.39068206 -49.73827672 63.27534264 -49.75268555 59.15991211 C-49.76933103 54.90577282 -49.81410122 50.65240865 -49.86505699 46.39856243 C-49.89869496 43.13089598 -49.91025917 39.86341414 -49.91591263 36.59559059 C-49.92263569 35.02745458 -49.93788532 33.45933116 -49.96180344 31.89136314 C-49.99338487 29.69556784 -49.99350386 27.50187049 -49.98608398 25.3059082 C-49.99821426 23.43179512 -49.99821426 23.43179512 -50.0105896 21.51982117 C-49.40258789 18.35009766 -49.40258789 18.35009766 -46.99111938 15.9778595 C-43.62766723 13.86279963 -41.97600269 13.22627489 -38.05102539 13.25244141 C-37.20024414 13.25566406 -36.34946289 13.25888672 -35.47290039 13.26220703 C-34.58344727 13.27058594 -33.69399414 13.27896484 -32.77758789 13.28759766 C-31.88040039 13.29210938 -30.98321289 13.29662109 -30.05883789 13.30126953 C-27.84002141 13.31307175 -25.62133771 13.3295361 -23.40258789 13.35009766 C-23.12415039 12.60244141 -22.84571289 11.85478516 -22.55883789 11.08447266 C-21.52620624 8.64243834 -20.45112697 6.73406004 -18.90258789 4.60009766 C-18.47977539 4.00712891 -18.05696289 3.41416016 -17.62133789 2.80322266 C-13.95552082 -1.56755924 -5.29705348 0.04012509 0 0 Z M-13.40258789 27.35009766 C-20.28573962 30.79167352 -28.71570066 28.98405541 -36.40258789 29.35009766 C-36.40258789 45.52009766 -36.40258789 61.69009766 -36.40258789 78.35009766 C-10.66258789 78.35009766 15.07741211 78.35009766 41.59741211 78.35009766 C41.59741211 62.18009766 41.59741211 46.01009766 41.59741211 29.35009766 C34.66741211 29.02009766 27.73741211 28.69009766 20.59741211 28.35009766 C15.37084961 23.12353516 15.37084961 23.12353516 13.78491211 19.53759766 C11.77103629 16.62651435 10.53794384 16.33632946 7.00366211 15.51806641 C-4.02330018 14.40820558 -8.02617712 17.61484539 -13.40258789 27.35009766 Z " fill="#1D1D1D" transform="translate(49.402587890625,4.64990234375)"/>
<path d="M0 0 C6.62227755 3.86027673 10.68221961 9.77974911 13.02734375 17.01171875 C14.82597806 24.57787466 12.94163212 31.17782983 9.5 38 C5.50536675 43.60904461 0.14785541 47.24513133 -6.5 49 C-14.87125387 50.19912555 -21.58413446 48.9296481 -28.5 44 C-35.23846828 38.1515181 -37.96596954 31.80627411 -38.9375 23.0625 C-38.6057106 15.5067505 -34.95809577 8.102133 -29.5 3 C-20.73698443 -3.29267975 -9.91966983 -4.39214297 0 0 Z M-19.5 17 C-21.65741221 19.62641487 -21.4990559 21.05286942 -21.4375 24.5 C-20.76211588 28.07782385 -20.76211588 28.07782385 -18.3125 30.4375 C-14.95611204 32.30215998 -13.2822566 32.6303761 -9.5 32 C-5.75214957 29.91786087 -4.70517705 28.7052961 -3.5 24.5625 C-3.5 20.51540077 -3.77506826 18.98039409 -6.5 16 C-11.8151367 13.59314564 -14.69669929 13.64885997 -19.5 17 Z " fill="#1D1D1D" transform="translate(64.5,33)"/>
</svg>
