<?xml version="1.0" encoding="UTF-8"?>
<svg version="1.1" xmlns="http://www.w3.org/2000/svg" width="32" height="32">
<path d="M0 0 C4.8846525 2.26787438 7.73212562 5.1153475 10 10 C10.75381535 15.5997712 10.77303575 20.33499991 8.375 25.5 C3.80134327 30.3143755 0.6912538 32.25156236 -6 32.5 C-12.6912538 32.25156236 -15.80134327 30.3143755 -20.375 25.5 C-22.77303575 20.33499991 -22.75381535 15.5997712 -22 10 C-17.52212837 0.3553534 -9.85292056 -1.32635469 0 0 Z " fill="#F6F5F5" transform="translate(22,0)"/>
<path d="M0 0 C3.32393424 1.87874544 4.6662135 3.10294877 6 6.6875 C6 12.61124201 3.69453912 17.7991865 1 23 C2.32 23.33 3.64 23.66 5 24 C4.67 24.99 4.34 25.98 4 27 C-0.52741172 28.50913724 -5.06426798 28.77429281 -9.5 27 C-9.995 26.67 -10.49 26.34 -11 26 C-10.67 25.01 -10.34 24.02 -10 23 C-9.01 23 -8.02 23 -7 23 C-7.3609375 22.46632813 -7.721875 21.93265625 -8.09375 21.3828125 C-11.64027423 15.68867082 -13.48585887 10.72864547 -12 4 C-8.60591146 -0.31974906 -5.31096914 -0.75870988 0 0 Z " fill="#854E4F" transform="translate(19,3)"/>
<path d="M0 0 C1.9375 1.5 1.9375 1.5 3 3 C2.34 3 1.68 3 1 3 C1.33 4.98 1.66 6.96 2 9 C0.35 9 -1.3 9 -3 9 C-3 11.31 -3 13.62 -3 16 C-5.31 16.66 -7.62 17.32 -10 18 C-12.61249493 13.46747868 -12.81614443 9.11790572 -12 4 C-8.60361541 -0.3226713 -5.31626308 -0.68914521 0 0 Z " fill="#7B3F4B" transform="translate(19,3)"/>
<path d="M0 0 C4.8846525 2.26787438 7.73212562 5.1153475 10 10 C10.75381535 15.5997712 10.77303575 20.33499991 8.375 25.5 C3.80134327 30.3143755 0.6912538 32.25156236 -6 32.5 C-12.6912538 32.25156236 -15.80134327 30.3143755 -20.375 25.5 C-22.77303575 20.33499991 -22.75381535 15.5997712 -22 10 C-17.52212837 0.3553534 -9.85292056 -1.32635469 0 0 Z M-20 8.875 C-21.75217338 14.35054183 -21.57262695 18.8547461 -19 24 C-18.34 24.99 -17.68 25.98 -17 27 C-16.01 27 -15.02 27 -14 27 C-13.67 27.99 -13.34 28.98 -13 30 C-8.47258828 31.50913724 -3.93573202 31.77429281 0.5 30 C0.995 29.67 1.49 29.34 2 29 C2 28.34 2 27.68 2 27 C2.598125 26.938125 3.19625 26.87625 3.8125 26.8125 C6.15910143 26.13847231 6.15910143 26.13847231 7.75 24 C9.69973999 19.32062403 9.93955564 14.85781506 8.34375 10.00390625 C6.04337907 5.39324899 2.86405396 2.684092 -2 1 C-9.74834173 -0.10690596 -15.48218304 2.38063812 -20 8.875 Z " fill="#DADADA" transform="translate(22,0)"/>
<path d="M0 0 C-3 2 -3 2 -6.1875 3.5 C-9.14262868 5.64417194 -9.14262868 5.64417194 -9.52734375 8.23828125 C-9.75916966 14.34921233 -8.3483859 17.97742114 -5 23 C-5 23.66 -5 24.32 -5 25 C-7.31 25.33 -9.62 25.66 -12 26 C-15.14400346 22.17251752 -15.81396879 19.61227045 -16.375 14.75 C-15.88431324 9.8431324 -14.19787013 6.71689617 -11 3 C-7.24203776 0.49469184 -4.50110761 -0.39715655 0 0 Z " fill="#FCFBFB" transform="translate(17,1)"/>
<path d="M0 0 C3.375 -0.1875 3.375 -0.1875 7 0 C7.66 0.99 8.32 1.98 9 3 C7.68 3.33 6.36 3.66 5 4 C5 6.31 5 8.62 5 11 C2.69 11.66 0.38 12.32 -2 13 C-3.0625 11.1875 -3.0625 11.1875 -4 9 C-3.67 8.01 -3.34 7.02 -3 6 C-2.34 5.67 -1.68 5.34 -1 5 C-0.01 5.33 0.98 5.66 2 6 C2.33 5.67 2.66 5.34 3 5 C1.68 4.67 0.36 4.34 -1 4 C-0.67 2.68 -0.34 1.36 0 0 Z " fill="#CA9590" transform="translate(11,8)"/>
<path d="M0 0 C0.495 0.33 0.99 0.66 1.5 1 C1.17 1.99 0.84 2.98 0.5 4 C-4.02741172 5.50913724 -8.56426798 5.77429281 -13 4 C-13.495 3.67 -13.99 3.34 -14.5 3 C-14.17 2.01 -13.84 1.02 -13.5 0 C-8.97258828 -1.50913724 -4.43573202 -1.77429281 0 0 Z " fill="#9D7673" transform="translate(22.5,26)"/>
<path d="M0 0 C0.99 0.33 1.98 0.66 3 1 C3 1.66 3 2.32 3 3 C4.32 2.67 5.64 2.34 7 2 C7 3.32 7 4.64 7 6 C4.69 6.66 2.38 7.32 0 8 C-1.0625 6.1875 -1.0625 6.1875 -2 4 C-1 1 -1 1 0 0 Z " fill="#D8AAA6" transform="translate(9,13)"/>
<path d="M0 0 C2.4375 0.375 2.4375 0.375 5 1 C5.33 1.66 5.66 2.32 6 3 C8.67643957 3.89214652 10.25384378 4.13540211 13 4.125 C14.0209375 4.12886719 14.0209375 4.12886719 15.0625 4.1328125 C18.20649874 3.91729646 19.77303486 3.22696514 22 1 C22.33 1.99 22.66 2.98 23 4 C18.01181889 6.98336191 12.63328581 6.63177037 7 6 C3.80263934 4.7282543 1.57604523 3.15209045 0 0 Z " fill="#D0CFD0" transform="translate(3,26)"/>
<path d="M0 0 C1 3 1 3 -0.0625 5.1875 C-2 7 -2 7 -5.1875 7.25 C-6.115625 7.1675 -7.04375 7.085 -8 7 C-8.33 6.01 -8.66 5.02 -9 4 C-8.195625 3.87625 -7.39125 3.7525 -6.5625 3.625 C-5.716875 3.41875 -4.87125 3.2125 -4 3 C-3.67 2.34 -3.34 1.68 -3 1 C-2.01 0.67 -1.02 0.34 0 0 Z " fill="#482A2F" transform="translate(21,19)"/>
<path d="M0 0 C1.32 0 2.64 0 4 0 C3.67 0.99 3.34 1.98 3 3 C0.24921116 3.91692961 -1.35948913 4.10886083 -4.1875 4.0625 C-6.0746875 4.0315625 -6.0746875 4.0315625 -8 4 C-8.33 3.01 -8.66 2.02 -9 1 C-7.700625 1.020625 -6.40125 1.04125 -5.0625 1.0625 C-3.70834367 1.08399454 -2.35243917 1.07148199 -1 1 C-0.67 0.67 -0.34 0.34 0 0 Z " fill="#59484A" transform="translate(20,27)"/>
<path d="M0 0 C1.32 0.33 2.64 0.66 4 1 C4.33 2.98 4.66 4.96 5 7 C4.01 7.66 3.02 8.32 2 9 C2 8.34 2 7.68 2 7 C0.35 7 -1.3 7 -3 7 C-1.68 6.67 -0.36 6.34 1 6 C0.67 4.02 0.34 2.04 0 0 Z " fill="#532830" transform="translate(20,6)"/>
<path d="M0 0 C0.33 0 0.66 0 1 0 C1.33 1.65 1.66 3.3 2 5 C3.65 5.33 5.3 5.66 7 6 C6.01 7.32 5.02 8.64 4 10 C4 9.34 4 8.68 4 8 C3.0409375 8.2784375 3.0409375 8.2784375 2.0625 8.5625 C1.381875 8.706875 0.70125 8.85125 0 9 C-1 8 -1 8 -1.125 4.5 C-1 1 -1 1 0 0 Z " fill="#9A676D" transform="translate(8,6)"/>
<path d="M0 0 C2.475 0.99 2.475 0.99 5 2 C4.34 3.65 3.68 5.3 3 7 C2.01 7 1.02 7 0 7 C0 4.69 0 2.38 0 0 Z " fill="#A46560" transform="translate(16,12)"/>
<path d="M0 0 C0 1.32 0 2.64 0 4 C-2.97 3.505 -2.97 3.505 -6 3 C-3.375 0 -3.375 0 0 0 Z " fill="#AB7684" transform="translate(15,3)"/>
</svg>
