<svg xmlns="http://www.w3.org/2000/svg" xmlns:xlink="http://www.w3.org/1999/xlink" width="500" zoomAndPan="magnify" viewBox="0 0 375 374.999991" height="500" preserveAspectRatio="xMidYMid meet" version="1.0"><rect x="-37.5" width="450" fill="#ffffff" y="-37.499999" height="449.999989" fill-opacity="1"/><rect x="-37.5" width="450" fill="#673ab7" y="-37.499999" height="449.999989" fill-opacity="1"/><path fill="#ffffff" d="M 15.304688 15.304688 L 59.949219 15.304688 L 59.949219 2.550781 L 2.550781 2.550781 L 2.550781 59.949219 L 15.304688 59.949219 Z M 15.304688 15.304688 " fill-opacity="1" fill-rule="nonzero"/><path fill="#ffffff" d="M 359.695312 59.949219 L 372.449219 59.949219 L 372.449219 2.550781 L 315.050781 2.550781 L 315.050781 15.304688 L 359.695312 15.304688 Z M 359.695312 59.949219 " fill-opacity="1" fill-rule="nonzero"/><path fill="#ffffff" d="M 359.695312 359.695312 L 315.050781 359.695312 L 315.050781 372.449219 L 372.449219 372.449219 L 372.449219 315.050781 L 359.695312 315.050781 Z M 359.695312 359.695312 " fill-opacity="1" fill-rule="nonzero"/><path fill="#ffffff" d="M 15.304688 315.050781 L 2.550781 315.050781 L 2.550781 372.449219 L 59.949219 372.449219 L 59.949219 359.695312 L 15.304688 359.695312 Z M 15.304688 315.050781 " fill-opacity="1" fill-rule="nonzero"/><path fill="#ffffff" d="M 370.355469 192.21875 L 375.546875 187.5 L 370.355469 182.78125 C 306.046875 124.324219 239.3125 96.722656 171.835938 100.765625 C 71.480469 106.761719 6.8125 180.203125 4.105469 183.328125 L 0.496094 187.5 L 4.105469 191.671875 C 6.8125 194.796875 71.480469 268.226562 171.835938 274.234375 C 176.136719 274.488281 180.433594 274.617188 184.730469 274.617188 C 247.769531 274.628906 310.152344 246.9375 370.355469 192.21875 Z M 17.691406 187.5 C 32.921875 171.976562 91.222656 118.304688 172.742188 113.480469 C 234.835938 109.835938 296.519531 134.71875 356.503906 187.5 C 296.53125 240.28125 234.796875 265.179688 172.742188 261.519531 C 91.210938 256.695312 32.921875 203.023438 17.691406 187.5 Z M 17.691406 187.5 " fill-opacity="1" fill-rule="nonzero"/><path fill="#ffffff" d="M 245.355469 187.5 C 245.355469 155.597656 219.402344 129.644531 187.5 129.644531 C 155.597656 129.644531 129.644531 155.597656 129.644531 187.5 C 129.644531 219.402344 155.597656 245.355469 187.5 245.355469 C 219.402344 245.355469 245.355469 219.402344 245.355469 187.5 Z M 187.5 232.601562 C 162.628906 232.601562 142.398438 212.371094 142.398438 187.5 C 142.398438 162.628906 162.628906 142.398438 187.5 142.398438 C 212.371094 142.398438 232.601562 162.628906 232.601562 187.5 C 232.601562 212.371094 212.371094 232.601562 187.5 232.601562 Z M 187.5 232.601562 " fill-opacity="1" fill-rule="nonzero"/><path fill="#ffffff" d="M 187.5 162.894531 C 173.941406 162.894531 162.894531 173.929688 162.894531 187.5 C 162.894531 201.070312 173.929688 212.105469 187.5 212.105469 C 201.070312 212.105469 212.105469 201.070312 212.105469 187.5 C 212.105469 173.929688 201.058594 162.894531 187.5 162.894531 Z M 187.5 199.347656 C 180.96875 199.347656 175.652344 194.03125 175.652344 187.5 C 175.652344 180.96875 180.96875 175.652344 187.5 175.652344 C 194.03125 175.652344 199.347656 180.96875 199.347656 187.5 C 199.347656 194.03125 194.03125 199.347656 187.5 199.347656 Z M 187.5 199.347656 " fill-opacity="1" fill-rule="nonzero"/><path fill="#ffffff" d="M 181.121094 44.910156 L 193.878906 44.910156 L 193.878906 77.71875 L 181.121094 77.71875 Z M 181.121094 44.910156 " fill-opacity="1" fill-rule="nonzero"/><path fill="#ffffff" d="M 76.09375 65.824219 L 85.117188 56.808594 L 108.300781 80 L 99.28125 89.015625 Z M 76.09375 65.824219 " fill-opacity="1" fill-rule="nonzero"/><path fill="#ffffff" d="M 259.804688 79.988281 L 282.996094 56.800781 L 292.015625 65.820312 L 268.824219 89.007812 Z M 259.804688 79.988281 " fill-opacity="1" fill-rule="nonzero"/><path fill="#ffffff" d="M 181.121094 297.28125 L 193.878906 297.28125 L 193.878906 330.089844 L 181.121094 330.089844 Z M 181.121094 297.28125 " fill-opacity="1" fill-rule="nonzero"/><path fill="#ffffff" d="M 76.082031 309.171875 L 99.269531 285.984375 L 108.289062 295.003906 L 85.101562 318.191406 Z M 76.082031 309.171875 " fill-opacity="1" fill-rule="nonzero"/><path fill="#ffffff" d="M 259.800781 295.007812 L 268.824219 285.992188 L 292.007812 309.183594 L 282.988281 318.199219 Z M 259.800781 295.007812 " fill-opacity="1" fill-rule="nonzero"/></svg>