<?xml version="1.0" encoding="UTF-8"?>
<svg version="1.1" xmlns="http://www.w3.org/2000/svg" width="55" height="55">
<path d="M0 0 C24.255 0.495 24.255 0.495 49 1 C49 14.86 49 28.72 49 43 C33.16 43 17.32 43 1 43 C0.67 28.81 0.34 14.62 0 0 Z M13 5 C13 5.66 13 6.32 13 7 C12.34 7 11.68 7 11 7 C11 7.66 11 8.32 11 9 C10.34 9 9.68 9 9 9 C9 9.66 9 10.32 9 11 C9.66 11 10.32 11 11 11 C11 11.66 11 12.32 11 13 C11.66 13 12.32 13 13 13 C13 13.66 13 14.32 13 15 C13.66 15 14.32 15 15 15 C15 14.34 15 13.68 15 13 C15.66 13 16.32 13 17 13 C17 12.34 17 11.68 17 11 C17.66 11 18.32 11 19 11 C19 10.34 19 9.68 19 9 C18.34 9 17.68 9 17 9 C17 8.34 17 7.68 17 7 C16.34 7 15.68 7 15 7 C15 6.34 15 5.68 15 5 C14.34 5 13.68 5 13 5 Z M33 11 C32.896875 11.7425 32.79375 12.485 32.6875 13.25 C31.95746496 16.17014018 30.93210602 17.73187554 29 20 C28.443125 19.62875 27.88625 19.2575 27.3125 18.875 C24.97126359 17.74391316 24.97126359 17.74391316 22.3125 18.625 C19.83422848 19.77495599 19.83422848 19.77495599 19.1875 22.125 C19.125625 22.74375 19.06375 23.3625 19 24 C16.69 23.34 14.38 22.68 12 22 C10.68 24.64 9.36 27.28 8 30 C19.88 30 31.76 30 44 30 C43.07041397 25.35206984 41.58784798 21.82212948 39.4375 17.6875 C39.10814453 17.04232422 38.77878906 16.39714844 38.43945312 15.73242188 C37.63175745 14.15214772 36.81662387 12.57567895 36 11 C35.01 11 34.02 11 33 11 Z " fill="#121212" transform="translate(6,2)"/>
<path d="M0 0 C1.65 0 3.3 0 5 0 C5.33 11.88 5.66 23.76 6 36 C19.86 36.33 33.72 36.66 48 37 C48 38.65 48 40.3 48 42 C32.16 42 16.32 42 0 42 C0 28.14 0 14.28 0 0 Z " fill="#030303" transform="translate(0,10)"/>
<path d="" fill="#FFFFFF" transform="translate(0,0)"/>
<path d="" fill="#FFFFFF" transform="translate(0,0)"/>
<path d="" fill="#FFFFFF" transform="translate(0,0)"/>
<path d="" fill="#FFFFFF" transform="translate(0,0)"/>
<path d="" fill="#FFFFFF" transform="translate(0,0)"/>
<path d="" fill="#FFFFFF" transform="translate(0,0)"/>
<path d="" fill="#FFFFFF" transform="translate(0,0)"/>
</svg>
