<?xml version="1.0" encoding="UTF-8"?>
<svg version="1.1" xmlns="http://www.w3.org/2000/svg" width="360" height="360">
<path d="M0 0 C1.02484497 -0.0010675 2.04968994 -0.00213501 3.10559082 -0.00323486 C18.8878748 0.02052341 33.5955686 0.90918512 48.8125 5.4375 C50.02945557 5.78240479 50.02945557 5.78240479 51.27099609 6.13427734 C56.55388984 7.65489842 61.6960458 9.42925958 66.8125 11.4375 C67.54484863 11.72463867 68.27719727 12.01177734 69.03173828 12.30761719 C91.43667692 21.28901187 110.42038881 34.86214541 127.8125 51.4375 C128.64265625 52.20320313 129.4728125 52.96890625 130.328125 53.7578125 C158.60016391 80.66184952 179.79549444 123.641862 181.00537109 162.96630859 C181.0382929 164.67274531 181.06481203 166.37931398 181.0859375 168.0859375 C181.10472961 169.46861565 181.10472961 169.46861565 181.12390137 170.87922668 C181.34018629 190.61118611 181.39195706 209.34511852 175.8125 228.4375 C175.49949951 229.60079834 175.49949951 229.60079834 175.18017578 230.78759766 C167.36252412 259.61402205 151.0350732 284.83246154 130.8125 306.4375 C129.92949219 307.38625 129.04648437 308.335 128.13671875 309.3125 C103.660419 335.01914568 70.20555784 351.13251445 35.8125 358.4375 C34.9877417 358.62513916 34.1629834 358.81277832 33.31323242 359.00610352 C22.86785415 361.09517917 12.23315339 360.87829014 1.625 360.875 C0.59915802 360.87573517 -0.42668396 360.87647034 -1.48361206 360.87722778 C-17.27472852 360.84747017 -31.96641523 359.98127568 -47.1875 355.4375 C-48.10660156 355.17517578 -49.02570313 354.91285156 -49.97265625 354.64257812 C-62.04466353 351.14186392 -73.17672407 346.4629313 -84.1875 340.4375 C-85.93740234 339.51517578 -85.93740234 339.51517578 -87.72265625 338.57421875 C-101.09675821 331.29159051 -113.20905757 321.97111088 -124.1875 311.4375 C-125.11691406 310.57125 -126.04632813 309.705 -127.00390625 308.8125 C-155.94565415 281.32759942 -178.26391859 238.37384652 -179.36450195 197.95288086 C-179.39078644 196.26944976 -179.41089597 194.58591423 -179.42578125 192.90234375 C-179.43552979 191.99450638 -179.44527832 191.08666901 -179.45532227 190.15132141 C-179.77481706 152.73269023 -179.77481706 152.73269023 -175.1875 136.4375 C-174.99494629 135.71900879 -174.80239258 135.00051758 -174.60400391 134.26025391 C-173.32779079 129.5722764 -171.82768316 125.01071659 -170.1875 120.4375 C-169.76984375 119.25671875 -169.3521875 118.0759375 -168.921875 116.859375 C-162.66667025 100.2507279 -154.23609424 84.34784723 -143.1875 70.4375 C-142.77064941 69.90785645 -142.35379883 69.37821289 -141.92431641 68.83251953 C-114.57356073 34.42754377 -77.20759542 11.41461596 -34.1875 2.4375 C-33.36564209 2.25131104 -32.54378418 2.06512207 -31.69702148 1.87329102 C-21.24716819 -0.21780338 -10.61283092 -0.0023366 0 0 Z M-113.58984375 74.53125 C-123.39199068 85.4978625 -131.60022961 97.29429733 -138.1875 110.4375 C-138.53651367 111.12360352 -138.88552734 111.80970703 -139.24511719 112.51660156 C-149.78623381 133.56968886 -154.60535411 156.64172187 -154.5 180.125 C-154.49508545 181.43500977 -154.4901709 182.74501953 -154.48510742 184.09472656 C-154.36056274 194.46450841 -153.51356709 204.33421844 -151.1875 214.4375 C-150.93806641 215.54859131 -150.93806641 215.54859131 -150.68359375 216.68212891 C-141.71031069 255.39187501 -116.67494026 290.17003794 -83.1875 311.4375 C-49.00356387 332.62916376 -7.19925244 341.93010047 32.55419922 332.98535156 C74.65309305 322.77238748 110.96405728 298.71914858 133.8125 261.4375 C148.45936711 236.66427369 156.25448477 209.61196703 156.125 180.75 C156.12008545 179.43999023 156.1151709 178.12998047 156.11010742 176.78027344 C155.98556274 166.41049159 155.13856709 156.54078156 152.8125 146.4375 C152.64621094 145.69677246 152.47992188 144.95604492 152.30859375 144.19287109 C143.5851128 106.56074353 119.25985088 71.38195617 86.59130859 50.54345703 C21.48918093 10.06683909 -59.94461523 19.40314525 -113.58984375 74.53125 Z " fill="#C136C2" transform="translate(179.1875,-0.4375)"/>
<path d="M0 0 C9.15993372 8.17403087 12.87231283 19.03551417 14 31 C14.07345603 32.46575113 14.13801369 33.93196588 14.1953125 35.3984375 C14.2272168 36.15946777 14.25912109 36.92049805 14.29199219 37.70458984 C14.34632072 39.20693357 14.38157952 40.7101177 14.39550781 42.21337891 C14.50503318 45.72718145 14.64769395 47.59071349 16.98046875 50.30078125 C17.64691406 50.86152344 18.31335938 51.42226562 19 52 C20.73749297 57.90747609 19.65459702 62.6051738 17 68 C14.40880285 71.72087438 11.77625091 74.48249939 8 77 C7.00146209 79.10898092 6.09769476 81.2634963 5.25 83.4375 C2.89752357 89.30884492 0.03913398 94.34838583 -3.6796875 99.5 C-5.35648568 102.67500247 -5.51645162 104.44826252 -5 108 C-2.09104924 114.60591699 2.99413945 116.23353328 9.3125 118.75 C11.3841948 119.6143911 13.45580694 120.47898034 15.52734375 121.34375 C16.5932373 121.78074219 17.65913086 122.21773437 18.75732422 122.66796875 C23.98359988 124.81482615 29.1814654 127.02535445 34.375 129.25 C35.30610596 129.63768555 36.23721191 130.02537109 37.1965332 130.42480469 C46.55239946 134.41839936 57.57072804 139.8763961 61.75048828 149.77783203 C63.45518525 154.44240852 64.75028184 159.19639583 66 164 C66.2475 164.8971875 66.495 165.794375 66.75 166.71875 C67.28086452 168.8127156 67.68415045 170.86385963 68 173 C68.11859375 173.74507812 68.2371875 174.49015625 68.359375 175.2578125 C68.75796429 179.78026796 68.09779544 182.56110049 65.3125 186.1875 C45.47783866 206.14116931 0.13709369 205.16373989 -25.81481934 205.2479248 C-26.51530396 205.24860962 -27.21578857 205.24929443 -27.9375 205.25 C-28.6648938 205.25100708 -29.3922876 205.25201416 -30.14172363 205.25305176 C-100.40370344 205.18824498 -100.40370344 205.18824498 -121.88671875 187.44140625 C-124.12898429 185.1782338 -125.80373968 183.22606044 -126.31713867 180.01879883 C-126.249512 174.07516537 -125.25200226 168.67760806 -123.75 162.9375 C-123.54503906 162.09123047 -123.34007813 161.24496094 -123.12890625 160.37304688 C-120.85478084 151.43504489 -117.57295361 143.62669205 -110 138 C-99.2730389 131.64687078 -87.49645277 127.11918271 -76.0246582 122.30004883 C-63.96018617 117.93702961 -63.96018617 117.93702961 -53.875 110.5625 C-52.79584607 107.40212062 -52.67845824 105.34244646 -53 102 C-54.31068975 99.45571991 -55.6237815 97.18590795 -57.1875 94.8125 C-60.07194676 90.2667331 -62.62689873 85.87060243 -64.6875 80.875 C-66.09397072 77.58191855 -67.1939067 75.47464868 -70.0625 73.3125 C-74.8136167 69.5722592 -76.87737047 64.77338024 -77.9375 58.875 C-78.00624372 54.61288944 -77.32562822 52.53150952 -75 49 C-74.34 48.67 -73.68 48.34 -73 48 C-72.59587105 45.65671065 -72.59587105 45.65671065 -72.5078125 42.8203125 C-72.44207031 41.74523437 -72.37632812 40.67015625 -72.30859375 39.5625 C-72.18830011 37.31019356 -72.07351291 35.05758472 -71.96484375 32.8046875 C-71.16645797 20.09077063 -67.23027101 8.52339908 -57.6875 -0.3125 C-41.72520041 -12.94932051 -15.84179306 -12.29345493 0 0 Z " fill="#C335C3" transform="translate(209,82)"/>
<path d="M0 0 C0.33 0 0.66 0 1 0 C0.67 9.9 0.34 19.8 0 30 C-1.98 30.99 -3.96 31.98 -6 33 C-5.67 32.01 -5.34 31.02 -5 30 C-4.34 29.67 -3.68 29.34 -3 29 C-2.5458402 26.54306086 -2.5458402 26.54306086 -2.40234375 23.57421875 C-2.32306641 22.46755859 -2.24378906 21.36089844 -2.16210938 20.22070312 C-2.05092773 18.47176758 -2.05092773 18.47176758 -1.9375 16.6875 C-1.78292513 14.3995365 -1.6254897 12.111764 -1.46484375 9.82421875 C-1.399021 8.80416748 -1.33319824 7.78411621 -1.26538086 6.7331543 C-1.03681192 4.37912555 -0.65256909 2.26690796 0 0 Z " fill="#AC45AA" transform="translate(139,101)"/>
<path d="M0 0 C0.33 0 0.66 0 1 0 C1.04487549 0.74685059 1.08975098 1.49370117 1.13598633 2.26318359 C1.34681673 5.63489474 1.57937339 9.00476024 1.8125 12.375 C1.88275391 13.550625 1.95300781 14.72625 2.02539062 15.9375 C2.10595703 17.05898437 2.18652344 18.18046875 2.26953125 19.3359375 C2.33760986 20.37282715 2.40568848 21.4097168 2.47583008 22.47802734 C2.76507502 25.3502126 2.76507502 25.3502126 6 27 C5.67 27.66 5.34 28.32 5 29 C2.53051758 27.8737793 2.53051758 27.8737793 0 26 C-0.56762695 23.27270508 -0.56762695 23.27270508 -0.48828125 20.01953125 C-0.47216797 18.85615234 -0.45605469 17.69277344 -0.43945312 16.49414062 C-0.39755859 15.27919922 -0.35566406 14.06425781 -0.3125 12.8125 C-0.27866211 10.97268555 -0.27866211 10.97268555 -0.24414062 9.09570312 C-0.18513053 6.06258441 -0.10284592 3.03189778 0 0 Z " fill="#AD46AB" transform="translate(221,105)"/>
<path d="M0 0 C6.95363973 0.28498524 11.99188226 1.52368734 18 5 C19.32958028 5.67412053 20.66198455 6.34278096 22 7 C20 8 20 8 17.93701172 7.47094727 C17.10959473 7.17244873 16.28217773 6.8739502 15.4296875 6.56640625 C14.53378906 6.24736328 13.63789063 5.92832031 12.71484375 5.59960938 C11.77769531 5.25736328 10.84054688 4.91511719 9.875 4.5625 C8.93011719 4.22412109 7.98523438 3.88574219 7.01171875 3.53710938 C4.67197234 2.6981094 2.33497991 1.85215708 0 1 C0 0.67 0 0.34 0 0 Z " fill="#B045AF" transform="translate(222,30)"/>
<path d="M0 0 C4.50727647 0.60266785 7.8587963 2.36599794 11.8125 4.5625 C12.7087207 5.0565332 12.7087207 5.0565332 13.62304688 5.56054688 C15.08533998 6.36773267 16.5431399 7.18304917 18 8 C18 8.66 18 9.32 18 10 C13.85967154 8.45614871 10.06446947 6.48971062 6.1875 4.375 C5.59001953 4.05015625 4.99253906 3.7253125 4.37695312 3.390625 C2.91662865 2.59620849 1.45812509 1.79844624 0 1 C0 0.67 0 0.34 0 0 Z " fill="#B046AE" transform="translate(248,40)"/>
<path d="M0 0 C0.66 0.33 1.32 0.66 2 1 C0.76055724 1.86941494 -0.49207059 2.72005457 -1.75 3.5625 C-2.44609375 4.03816406 -3.1421875 4.51382812 -3.859375 5.00390625 C-6 6 -6 6 -8.265625 5.65234375 C-8.83796875 5.43707031 -9.4103125 5.22179687 -10 5 C-8.38007835 4.13624104 -6.75388139 3.28424146 -5.125 2.4375 C-4.22007813 1.96183594 -3.31515625 1.48617188 -2.3828125 0.99609375 C-1.20332031 0.50302734 -1.20332031 0.50302734 0 0 Z " fill="#B248B0" transform="translate(105,15)"/>
</svg>
